<svg width="302" height="98" fill="none" xmlns="http://www.w3.org/2000/svg"><g clip-path="url('#clip0_1_848')" fill="#000"><path d="M151 90c-22.608 0-41-18.392-41-41s18.392-41 41-41 41 18.392 41 41-18.392 41-41 41Zm0-76.08c-19.343 0-35.08 15.737-35.08 35.08 0 19.343 15.737 35.08 35.08 35.08 19.343 0 35.08-15.737 35.08-35.08 0-19.343-15.737-35.08-35.08-35.08Z"/><path d="m141.759 35.333 8.178 26.693h.304l8.178-26.693h9.892l-12.339 36.445h-11.767l-12.338-36.445h9.892Z"/></g><defs><clipPath id="clip0_1_848"><path fill="#fff" transform="translate(110 8)" d="M0 0h82v82H0z"/></clipPath></defs></svg>